<svg width="129" height="136" viewBox="0 0 129 136" fill="none" xmlns="http://www.w3.org/2000/svg">
<g filter="url(#filter0_d)">
<path fill-rule="evenodd" clip-rule="evenodd" d="M48.5462 55.2873C48.5462 59.1208 47.4918 62.5469 45.8394 64.9862C44.1832 67.431 42.0004 68.7967 39.7172 68.7967C37.4339 68.7967 35.2511 67.431 33.5949 64.9862C31.9425 62.5469 30.8882 59.1208 30.8882 55.2873C30.8882 51.4537 31.9425 48.0277 33.5949 45.5884C35.2511 43.1435 37.4339 41.7778 39.7172 41.7778C42.0004 41.7778 44.1832 43.1435 45.8394 45.5884C47.4918 48.0277 48.5462 51.4537 48.5462 55.2873ZM42.0965 69.3687C41.3346 69.6483 40.5376 69.7967 39.7172 69.7967C39.0756 69.7967 38.4483 69.706 37.841 69.5327L35.0717 114.769L35.0706 114.787L35.068 114.806C34.8425 116.46 34.9358 118.947 35.7074 120.997C36.4739 123.034 37.8553 124.535 40.189 124.535V125.535C37.2805 125.535 35.6196 123.603 34.7715 121.35C33.9315 119.118 33.8354 116.467 34.0747 114.689L36.861 69.1747C32.8256 67.3685 29.8882 61.8343 29.8882 55.2873C29.8882 47.2739 34.2888 40.7778 39.7172 40.7778C45.1456 40.7778 49.5462 47.2739 49.5462 55.2873C49.5462 61.5615 46.8484 66.9056 43.0717 68.9297L45.8449 114.685C46.0824 116.444 46.1088 119.089 45.39 121.323C45.0281 122.447 44.4669 123.499 43.6171 124.274C42.7569 125.058 41.6293 125.531 40.1985 125.531V124.531C41.3887 124.531 42.2737 124.145 42.9435 123.535C43.6235 122.915 44.1096 122.037 44.4381 121.016C45.0975 118.967 45.0798 116.475 44.8516 114.801L44.849 114.783L44.8479 114.764L42.0965 69.3687Z" fill="#3B414C"/>
<path d="M45.8394 64.9862L46.0464 65.1264V65.1264L45.8394 64.9862ZM33.5949 64.9862L33.8019 64.846L33.5949 64.9862ZM33.5949 45.5884L33.8019 45.7286L33.5949 45.5884ZM45.8394 45.5884L46.0464 45.4482L45.8394 45.5884ZM42.0965 69.3687L42.3461 69.3536L42.3257 69.0183L42.0104 69.134L42.0965 69.3687ZM37.841 69.5327L37.9096 69.2923L37.6105 69.207L37.5915 69.5174L37.841 69.5327ZM35.0717 114.769L34.8222 114.753L35.0717 114.769ZM35.0706 114.787L35.3183 114.821L35.3195 114.812L35.3201 114.802L35.0706 114.787ZM35.068 114.806L34.8203 114.772L34.8203 114.772L35.068 114.806ZM35.7074 120.997L35.4735 121.086L35.7074 120.997ZM40.189 124.535H40.439V124.285H40.189V124.535ZM40.189 125.535V125.785H40.439V125.535H40.189ZM34.7715 121.35L35.0055 121.262L34.7715 121.35ZM34.0747 114.689L34.3224 114.722L34.3237 114.713L34.3242 114.704L34.0747 114.689ZM36.861 69.1747L37.1106 69.1899L37.1212 69.0172L36.9632 68.9465L36.861 69.1747ZM43.0717 68.9297L42.9537 68.7094L42.8125 68.785L42.8222 68.9449L43.0717 68.9297ZM45.8449 114.685L45.5954 114.7L45.596 114.709L45.5972 114.718L45.8449 114.685ZM45.39 121.323L45.628 121.399L45.39 121.323ZM43.6171 124.274L43.7855 124.459H43.7855L43.6171 124.274ZM40.1985 125.531H39.9485V125.781H40.1985V125.531ZM40.1985 124.531V124.281H39.9485V124.531H40.1985ZM42.9435 123.535L42.7751 123.35L42.9435 123.535ZM44.4381 121.016L44.6761 121.093L44.4381 121.016ZM44.8516 114.801L44.6039 114.835H44.6039L44.8516 114.801ZM44.849 114.783L44.5995 114.798L44.6001 114.807L44.6013 114.816L44.849 114.783ZM44.8479 114.764L44.5984 114.779V114.779L44.8479 114.764ZM46.0464 65.1264C47.7303 62.6405 48.7962 59.1641 48.7962 55.2873H48.2962C48.2962 59.0775 47.2533 62.4533 45.6324 64.846L46.0464 65.1264ZM39.7172 69.0467C42.1079 69.0467 44.3594 67.6167 46.0464 65.1264L45.6324 64.846C44.007 67.2453 41.893 68.5467 39.7172 68.5467V69.0467ZM33.388 65.1264C35.075 67.6167 37.3264 69.0467 39.7172 69.0467V68.5467C37.5414 68.5467 35.4273 67.2453 33.8019 64.846L33.388 65.1264ZM30.6382 55.2873C30.6382 59.1641 31.704 62.6405 33.388 65.1264L33.8019 64.846C32.1811 62.4533 31.1382 59.0775 31.1382 55.2873H30.6382ZM33.388 45.4482C31.704 47.9341 30.6382 51.4104 30.6382 55.2873H31.1382C31.1382 51.497 32.1811 48.1213 33.8019 45.7286L33.388 45.4482ZM39.7172 41.5278C37.3264 41.5278 35.075 42.9578 33.388 45.4482L33.8019 45.7286C35.4273 43.3292 37.5414 42.0278 39.7172 42.0278V41.5278ZM46.0464 45.4482C44.3594 42.9578 42.1079 41.5278 39.7172 41.5278V42.0278C41.893 42.0278 44.007 43.3292 45.6324 45.7286L46.0464 45.4482ZM48.7962 55.2873C48.7962 51.4104 47.7303 47.9341 46.0464 45.4482L45.6324 45.7286C47.2533 48.1213 48.2962 51.497 48.2962 55.2873H48.7962ZM39.7172 70.0467C40.5683 70.0467 41.3944 69.8927 42.1827 69.6034L42.0104 69.134C41.2749 69.4039 40.507 69.5467 39.7172 69.5467V70.0467ZM37.7724 69.7731C38.4014 69.9526 39.0518 70.0467 39.7172 70.0467V69.5467C39.0994 69.5467 38.4952 69.4594 37.9096 69.2923L37.7724 69.7731ZM35.3212 114.784L38.0905 69.548L37.5915 69.5174L34.8222 114.753L35.3212 114.784ZM35.3201 114.802L35.3212 114.784L34.8222 114.753L34.821 114.772L35.3201 114.802ZM35.3157 114.839L35.3183 114.821L34.8228 114.753L34.8203 114.772L35.3157 114.839ZM35.9414 120.909C35.1876 118.906 35.0944 116.462 35.3157 114.839L34.8203 114.772C34.5905 116.457 34.684 118.988 35.4735 121.086L35.9414 120.909ZM40.189 124.285C39.0809 124.285 38.2102 123.931 37.5235 123.34C36.8321 122.746 36.3152 121.903 35.9414 120.909L35.4735 121.086C35.8662 122.129 36.4232 123.054 37.1976 123.72C37.9766 124.389 38.9634 124.785 40.189 124.785V124.285ZM40.439 125.535V124.535H39.939V125.535H40.439ZM34.5375 121.438C35.4059 123.745 37.1364 125.785 40.189 125.785V125.285C37.4246 125.285 35.8334 123.462 35.0055 121.262L34.5375 121.438ZM33.8269 114.656C33.5835 116.465 33.6797 119.158 34.5375 121.438L35.0055 121.262C34.1833 119.077 34.0873 116.47 34.3224 114.722L33.8269 114.656ZM36.6115 69.1594L33.8251 114.674L34.3242 114.704L37.1106 69.1899L36.6115 69.1594ZM29.6382 55.2873C29.6382 61.8887 32.5991 67.541 36.7589 69.4028L36.9632 68.9465C33.052 67.1959 30.1382 61.7799 30.1382 55.2873H29.6382ZM39.7172 40.5278C36.8952 40.5278 34.3694 42.2164 32.56 44.8873C30.7498 47.5596 29.6382 51.2373 29.6382 55.2873H30.1382C30.1382 51.3239 31.2269 47.7469 32.974 45.1678C34.7221 42.5873 37.1107 41.0278 39.7172 41.0278V40.5278ZM49.7962 55.2873C49.7962 51.2373 48.6846 47.5596 46.8743 44.8873C45.065 42.2164 42.5391 40.5278 39.7172 40.5278V41.0278C42.3236 41.0278 44.7123 42.5873 46.4603 45.1678C48.2075 47.7469 49.2962 51.3239 49.2962 55.2873H49.7962ZM43.1898 69.1501C47.076 67.0673 49.7962 61.6164 49.7962 55.2873H49.2962C49.2962 61.5067 46.6208 66.744 42.9537 68.7094L43.1898 69.1501ZM42.8222 68.9449L45.5954 114.7L46.0945 114.67L43.3213 68.9146L42.8222 68.9449ZM45.5972 114.718C45.8318 116.456 45.8554 119.06 45.152 121.246L45.628 121.399C46.3622 119.118 46.3331 116.432 46.0927 114.651L45.5972 114.718ZM45.152 121.246C44.7985 122.345 44.2561 123.353 43.4487 124.089L43.7855 124.459C44.6778 123.646 45.2577 122.55 45.628 121.399L45.152 121.246ZM43.4487 124.089C42.6361 124.83 41.5691 125.281 40.1985 125.281V125.781C41.6894 125.781 42.8776 125.286 43.7855 124.459L43.4487 124.089ZM40.4485 125.531V124.531H39.9485V125.531H40.4485ZM40.1985 124.781C41.4489 124.781 42.3945 124.374 43.1119 123.72L42.7751 123.35C42.1529 123.917 41.3286 124.281 40.1985 124.281V124.781ZM43.1119 123.72C43.8344 123.061 44.3392 122.139 44.6761 121.093L44.2001 120.94C43.88 121.934 43.4127 122.769 42.7751 123.35L43.1119 123.72ZM44.6761 121.093C45.3509 118.996 45.3304 116.462 45.0993 114.768L44.6039 114.835C44.8292 116.487 44.844 118.939 44.2001 120.94L44.6761 121.093ZM45.0993 114.768L45.0967 114.749L44.6013 114.816L44.6039 114.835L45.0993 114.768ZM45.0986 114.768L45.0974 114.749L44.5984 114.779L44.5995 114.798L45.0986 114.768ZM45.0974 114.749L42.3461 69.3536L41.847 69.3838L44.5984 114.779L45.0974 114.749Z" fill="#3B414C"/>
<path d="M100.874 100.812C101.272 100.428 101.283 99.7953 100.899 99.398C100.516 99.0006 99.8828 98.9894 99.4854 99.3729L100.874 100.812ZM68.5688 115.055L68.685 116.049L68.5688 115.055ZM11.34 82.6702L10.4131 83.0457L11.34 82.6702ZM9.26789 47.7581L8.30314 47.4949L9.26789 47.7581ZM28.7817 18.7345L28.1739 17.9404L28.1739 17.9404L28.7817 18.7345ZM95.0536 18.5975L94.4491 19.3941L95.0536 18.5975ZM113.724 47.8072C113.871 48.3394 114.422 48.6512 114.954 48.5037C115.487 48.3561 115.798 47.8051 115.651 47.2729L113.724 47.8072ZM102.852 50.8214C102.999 51.3536 103.55 51.6654 104.083 51.5179C104.615 51.3703 104.927 50.8193 104.779 50.2871L102.852 50.8214ZM88.2337 27.5847L88.8382 26.7881L88.2337 27.5847ZM61.9178 18.7606L61.9199 19.7606L61.9178 18.7606ZM20.1521 50.7273L19.1873 50.4641L20.1521 50.7273ZM21.7965 78.4344L20.8697 78.8099L21.7965 78.4344ZM68.6438 104.057L68.76 105.05L68.6438 104.057ZM94.4256 92.9017C94.823 92.5181 94.8342 91.885 94.4506 91.4877C94.0671 91.0903 93.434 91.0791 93.0367 91.4626L94.4256 92.9017ZM33.0564 95.7886C33.475 96.1488 34.1064 96.1015 34.4667 95.6829C34.8269 95.2643 34.7796 94.6329 34.361 94.2726L33.0564 95.7886ZM32.1396 110.295C32.6 110.6 33.2205 110.474 33.5256 110.014C33.8306 109.554 33.7047 108.933 33.2443 108.628L32.1396 110.295ZM47.8118 101.769C47.2982 101.566 46.7173 101.818 46.5142 102.332C46.3112 102.845 46.563 103.426 47.0766 103.629L47.8118 101.769ZM52.1298 105.075C52.6725 105.177 53.1957 104.821 53.2985 104.278C53.4013 103.735 53.0447 103.212 52.502 103.109L52.1298 105.075ZM66.2338 103.314C65.6842 103.369 65.2832 103.859 65.338 104.409C65.3929 104.958 65.8829 105.359 66.4324 105.304L66.2338 103.314ZM52.3025 116.036C52.8438 116.145 53.3714 115.795 53.4809 115.254C53.5904 114.712 53.2403 114.185 52.6989 114.075L52.3025 116.036ZM47.7671 112.72C47.2444 112.542 46.6761 112.821 46.4978 113.344C46.3194 113.867 46.5986 114.435 47.1213 114.613L47.7671 112.72ZM66.2285 114.311C65.6793 114.369 65.2808 114.861 65.3386 115.41C65.3963 115.959 65.8884 116.358 66.4377 116.3L66.2285 114.311ZM99.4854 99.3729C91.0287 107.535 80.1263 112.696 68.4526 114.062L68.685 116.049C80.7938 114.632 92.1026 109.279 100.874 100.812L99.4854 99.3729ZM12.2668 82.2948C7.854 71.4012 7.13934 59.3603 10.2326 48.0212L8.30314 47.4949C5.09457 59.2565 5.83586 71.7462 10.4131 83.0457L12.2668 82.2948ZM10.2326 48.0212C13.3259 36.6822 20.0561 26.6722 29.3894 19.5286L28.1739 17.9404C18.4927 25.3502 11.5117 35.7333 8.30314 47.4949L10.2326 48.0212ZM29.3894 19.5286C38.7228 12.385 50.1432 8.50297 61.8966 8.47867L61.8924 6.47867C49.701 6.50388 37.8551 10.5306 28.1739 17.9404L29.3894 19.5286ZM61.8966 8.47867C73.6499 8.45436 85.0863 12.2892 94.4491 19.3941L95.6581 17.8008C85.9463 10.4312 74.0838 6.45346 61.8924 6.47867L61.8966 8.47867ZM94.4491 19.3941C103.812 26.499 110.583 36.4811 113.724 47.8072L115.651 47.2729C112.394 35.5246 105.37 25.1705 95.6581 17.8008L94.4491 19.3941ZM104.779 50.2871C102.182 40.9198 96.5817 32.6642 88.8382 26.7881L87.6292 28.3813C95.0238 33.9926 100.372 41.8763 102.852 50.8214L104.779 50.2871ZM88.8382 26.7881C81.0947 20.912 71.6363 17.7405 61.9158 17.7606L61.9199 19.7606C71.2025 19.7414 80.2346 22.77 87.6292 28.3813L88.8382 26.7881ZM61.9158 17.7606C52.1952 17.7807 42.75 20.9913 35.0309 26.8994L36.2465 28.4876C43.6178 22.8457 52.6373 19.7798 61.9199 19.7606L61.9158 17.7606ZM35.0309 26.8994C27.3118 32.8074 21.7456 41.0862 19.1873 50.4641L21.1168 50.9904C23.5598 42.0351 28.8752 34.1294 36.2465 28.4876L35.0309 26.8994ZM19.1873 50.4641C16.629 59.842 17.2201 69.8004 20.8697 78.8099L22.7234 78.059C19.2382 69.4555 18.6738 59.9458 21.1168 50.9904L19.1873 50.4641ZM68.76 105.05C78.4147 103.921 87.4316 99.6524 94.4256 92.9017L93.0367 91.4626C86.3578 97.9092 77.7472 101.985 68.5276 103.064L68.76 105.05ZM20.8697 78.8099C23.5366 85.3933 27.7288 91.2039 33.0564 95.7886L34.361 94.2726C29.2733 89.8945 25.2701 84.3457 22.7234 78.059L20.8697 78.8099ZM33.2443 108.628C24.2555 102.673 16.3497 92.3738 12.2668 82.2948L10.4131 83.0457C14.6286 93.4519 22.7746 104.091 32.1396 110.295L33.2443 108.628ZM47.0766 103.629C48.7255 104.281 50.4157 104.75 52.1298 105.075L52.502 103.109C50.8977 102.806 49.3305 102.37 47.8118 101.769L47.0766 103.629ZM66.4324 105.304C67.2117 105.226 67.9882 105.141 68.76 105.05L68.5276 103.064C67.7642 103.153 66.9993 103.238 66.2338 103.314L66.4324 105.304ZM52.6989 114.075C51.1443 113.761 49.5225 113.319 47.7671 112.72L47.1213 114.613C48.9495 115.237 50.6548 115.702 52.3025 116.036L52.6989 114.075ZM68.4526 114.062C67.6861 114.152 66.9464 114.235 66.2285 114.311L66.4377 116.3C67.1657 116.223 67.9136 116.139 68.685 116.049L68.4526 114.062Z" fill="#3B414C"/>
<path fill-rule="evenodd" clip-rule="evenodd" d="M54.4678 41.3823C54.4146 41.1113 54.1518 40.9348 53.8808 40.988C53.6569 41.032 53.4975 41.2191 53.4789 41.4356L50.9174 64.8972C50.5621 68.1517 53.111 70.9941 56.3849 70.9941H56.3947L53.591 116.792C53.3517 118.57 53.4478 121.22 54.2878 123.452C55.136 125.706 56.7968 127.638 59.7053 127.638V126.638C57.3716 126.638 55.9903 125.137 55.2238 123.1C54.4521 121.05 54.3588 118.562 54.5844 116.908L54.5869 116.89L54.588 116.871L57.3961 71.0027L57.2561 70.9941H61.2386L64.3645 116.871L64.3656 116.888L64.3679 116.905C64.5961 118.578 64.6138 121.071 63.9544 123.12C63.6259 124.14 63.1398 125.019 62.4598 125.638C61.7901 126.249 60.9051 126.634 59.7148 126.634V127.634C61.1456 127.634 62.2732 127.162 63.1334 126.378C63.9833 125.603 64.5444 124.551 64.9063 123.426C65.6254 121.192 65.5987 118.545 65.361 116.787L62.2403 70.9853C65.4093 70.807 67.7992 67.9627 67.3769 64.7724L64.2849 41.413L64.2848 41.413C64.2559 41.1929 64.0817 41.0113 63.8511 40.9825C63.5771 40.9482 63.3272 41.1426 63.2929 41.4166L61.6865 54.2681L60.08 41.4166C60.0489 41.1675 59.8379 40.9801 59.5868 40.9786C59.3358 40.9771 59.1226 41.162 59.0885 41.4108L57.1924 55.2565L54.4678 41.3823ZM63.8033 45.3956L62.1826 58.3612C62.1513 58.6114 61.9386 58.7992 61.6865 58.7992C61.4343 58.7992 61.2216 58.6114 61.1903 58.3612L59.5613 45.3289L57.7758 58.367C57.7426 58.6092 57.5392 58.7919 57.2949 58.799C57.0505 58.806 56.8369 58.6354 56.7898 58.3955L54.1184 44.7923L51.9115 65.0057C51.6208 67.6685 53.7063 69.9941 56.3849 69.9941H61.9244C64.6443 69.9941 66.7424 67.5999 66.3855 64.9036L63.8033 45.3956Z" fill="#3B414C"/>
<path d="M53.8808 40.988L53.929 41.2333L53.8808 40.988ZM54.4678 41.3823L54.2225 41.4304V41.4304L54.4678 41.3823ZM53.4789 41.4356L53.7275 41.4628L53.728 41.457L53.4789 41.4356ZM50.9174 64.8972L51.1659 64.9243L50.9174 64.8972ZM56.3947 70.9941L56.6442 71.0094L56.6605 70.7441H56.3947V70.9941ZM53.591 116.792L53.8388 116.825L53.84 116.816L53.8405 116.807L53.591 116.792ZM54.2878 123.452L54.0539 123.541H54.0539L54.2878 123.452ZM59.7053 127.638V127.888H59.9553V127.638H59.7053ZM59.7053 126.638H59.9553V126.388H59.7053V126.638ZM55.2238 123.1L54.9898 123.188L55.2238 123.1ZM54.5844 116.908L54.8321 116.942L54.8321 116.942L54.5844 116.908ZM54.5869 116.89L54.8346 116.924L54.8358 116.914L54.8364 116.905L54.5869 116.89ZM54.588 116.871L54.3385 116.856L54.588 116.871ZM57.3961 71.0027L57.6456 71.018L57.6609 70.7684L57.4113 70.7531L57.3961 71.0027ZM57.2561 70.9941V70.7441L57.2408 71.2436L57.2561 70.9941ZM61.2386 70.9941L61.488 70.9771L61.4721 70.7441H61.2386V70.9941ZM64.3645 116.871L64.6139 116.854V116.854L64.3645 116.871ZM64.3656 116.888L64.1162 116.905L64.1168 116.913L64.1179 116.922L64.3656 116.888ZM64.3679 116.905L64.1202 116.939L64.1202 116.939L64.3679 116.905ZM63.9544 123.12L64.1924 123.196L63.9544 123.12ZM62.4598 125.638L62.2914 125.454L62.4598 125.638ZM59.7148 126.634V126.384H59.4648V126.634H59.7148ZM59.7148 127.634H59.4648V127.884H59.7148V127.634ZM63.1334 126.378L62.965 126.193H62.965L63.1334 126.378ZM64.9063 123.426L65.1443 123.503L64.9063 123.426ZM65.361 116.787L65.1116 116.804L65.1122 116.812L65.1133 116.82L65.361 116.787ZM62.2403 70.9853L62.2263 70.7357L61.9737 70.7499L61.9909 71.0023L62.2403 70.9853ZM67.3769 64.7724L67.6247 64.7396L67.3769 64.7724ZM64.2849 41.413L64.5327 41.3802L64.4998 41.1318L64.2515 41.1652L64.2849 41.413ZM64.2848 41.413L64.037 41.4456L64.0697 41.6942L64.3182 41.6608L64.2848 41.413ZM63.8511 40.9825L63.8821 40.7344V40.7344L63.8511 40.9825ZM63.2929 41.4166L63.541 41.4476V41.4476L63.2929 41.4166ZM61.6865 54.2681L61.4384 54.2991H61.9345L61.6865 54.2681ZM60.08 41.4166L60.3281 41.3856V41.3856L60.08 41.4166ZM59.0885 41.4108L58.8408 41.3769V41.3769L59.0885 41.4108ZM57.1924 55.2565L56.9471 55.3046L57.4401 55.2904L57.1924 55.2565ZM63.8033 45.3956L64.0512 45.3628L63.5552 45.3646L63.8033 45.3956ZM62.1826 58.3612L61.9345 58.3302L62.1826 58.3612ZM61.1903 58.3612L61.4384 58.3302L61.1903 58.3612ZM59.5613 45.3289L59.8094 45.2979L59.3136 45.2949L59.5613 45.3289ZM57.7758 58.367L57.5281 58.3331L57.7758 58.367ZM57.2949 58.799L57.2876 58.5491L57.2949 58.799ZM56.7898 58.3955L56.5445 58.4437L56.7898 58.3955ZM54.1184 44.7923L54.3637 44.7441L53.8699 44.7652L54.1184 44.7923ZM51.9115 65.0057L52.16 65.0328L51.9115 65.0057ZM66.3855 64.9036L66.1377 64.9364L66.3855 64.9036ZM53.929 41.2333C54.0645 41.2067 54.1959 41.295 54.2225 41.4304L54.7131 41.3341C54.6333 40.9276 54.2391 40.6628 53.8327 40.7427L53.929 41.2333ZM53.728 41.457C53.7373 41.3486 53.8174 41.2552 53.929 41.2333L53.8327 40.7427C53.4964 40.8087 53.2577 41.0896 53.2298 41.4143L53.728 41.457ZM53.2304 41.4085L50.6689 64.87L51.1659 64.9243L53.7274 41.4628L53.2304 41.4085ZM50.6689 64.87C50.2974 68.2725 52.9622 71.2441 56.3849 71.2441V70.7441C53.2599 70.7441 50.8267 68.0309 51.1659 64.9243L50.6689 64.87ZM56.3849 71.2441H56.3947V70.7441H56.3849V71.2441ZM56.1452 70.9788L53.3415 116.777L53.8405 116.807L56.6442 71.0094L56.1452 70.9788ZM53.3432 116.758C53.0998 118.568 53.1961 121.261 54.0539 123.541L54.5218 123.364C53.6996 121.18 53.6036 118.573 53.8388 116.825L53.3432 116.758ZM54.0539 123.541C54.9222 125.848 56.6527 127.888 59.7053 127.888V127.388C56.9409 127.388 55.3498 125.564 54.5218 123.364L54.0539 123.541ZM59.9553 127.638V126.638H59.4553V127.638H59.9553ZM59.7053 126.388C58.5972 126.388 57.7265 126.033 57.0398 125.443C56.3485 124.849 55.8315 124.005 55.4577 123.012L54.9898 123.188C55.3825 124.232 55.9395 125.157 56.7139 125.822C57.4929 126.492 58.4797 126.888 59.7053 126.888V126.388ZM55.4577 123.012C54.7039 121.009 54.6108 118.565 54.8321 116.942L54.3367 116.875C54.1069 118.56 54.2003 121.09 54.9898 123.188L55.4577 123.012ZM54.8321 116.942L54.8346 116.924L54.3392 116.856L54.3367 116.875L54.8321 116.942ZM54.8364 116.905L54.8375 116.887L54.3385 116.856L54.3373 116.875L54.8364 116.905ZM54.8375 116.887L57.6456 71.018L57.1465 70.9874L54.3385 116.856L54.8375 116.887ZM57.4113 70.7531L57.2714 70.7446L57.2408 71.2436L57.3808 71.2522L57.4113 70.7531ZM57.2561 71.2441H61.2386V70.7441H57.2561V71.2441ZM60.9892 71.0111L64.115 116.888L64.6139 116.854L61.488 70.9771L60.9892 71.0111ZM64.115 116.888L64.1162 116.905L64.615 116.871L64.6139 116.854L64.115 116.888ZM64.1179 116.922L64.1202 116.939L64.6156 116.871L64.6133 116.854L64.1179 116.922ZM64.1202 116.939C64.3455 118.591 64.3603 121.042 63.7164 123.043L64.1924 123.196C64.8673 121.099 64.8467 118.566 64.6156 116.871L64.1202 116.939ZM63.7164 123.043C63.3963 124.038 62.929 124.873 62.2914 125.454L62.6282 125.823C63.3507 125.165 63.8556 124.243 64.1924 123.196L63.7164 123.043ZM62.2914 125.454C61.6693 126.021 60.8449 126.384 59.7148 126.384V126.884C60.9652 126.884 61.9109 126.477 62.6282 125.823L62.2914 125.454ZM59.4648 126.634V127.634H59.9648V126.634H59.4648ZM59.7148 127.884C61.2057 127.884 62.394 127.39 63.3018 126.562L62.965 126.193C62.1524 126.933 61.0855 127.384 59.7148 127.384V127.884ZM63.3018 126.562C64.1941 125.749 64.774 124.653 65.1443 123.503L64.6683 123.349C64.3148 124.448 63.7724 125.457 62.965 126.193L63.3018 126.562ZM65.1443 123.503C65.8788 121.22 65.8494 118.533 65.6088 116.753L65.1133 116.82C65.3481 118.558 65.3719 121.163 64.6683 123.349L65.1443 123.503ZM65.6104 116.77L62.4897 70.9683L61.9909 71.0023L65.1116 116.804L65.6104 116.77ZM62.2543 71.2349C65.5677 71.0485 68.0662 68.0751 67.6247 64.7396L67.129 64.8052C67.5321 67.8504 65.2509 70.5655 62.2263 70.7357L62.2543 71.2349ZM67.6247 64.7396L64.5327 41.3802L64.037 41.4458L67.129 64.8052L67.6247 64.7396ZM64.2515 41.1652L64.2515 41.1652L64.3182 41.6608L64.3182 41.6608L64.2515 41.1652ZM63.8201 41.2305C63.935 41.2449 64.0225 41.3355 64.037 41.4456L64.5327 41.3804C64.4893 41.0502 64.2283 40.7777 63.8821 40.7344L63.8201 41.2305ZM63.541 41.4476C63.5581 41.3106 63.6831 41.2134 63.8201 41.2305L63.8821 40.7344C63.4711 40.683 63.0962 40.9746 63.0448 41.3856L63.541 41.4476ZM61.9345 54.2991L63.541 41.4476L63.0448 41.3856L61.4384 54.2371L61.9345 54.2991ZM59.832 41.4476L61.4384 54.2991L61.9345 54.2371L60.3281 41.3856L59.832 41.4476ZM59.5854 41.2286C59.7109 41.2294 59.8164 41.323 59.832 41.4476L60.3281 41.3856C60.2814 41.0119 59.9649 40.7308 59.5883 40.7286L59.5854 41.2286ZM59.3362 41.4447C59.3532 41.3203 59.4599 41.2279 59.5854 41.2286L59.5883 40.7286C59.2117 40.7264 58.8919 41.0038 58.8408 41.3769L59.3362 41.4447ZM57.4401 55.2904L59.3362 41.4447L58.8408 41.3769L56.9447 55.2225L57.4401 55.2904ZM54.2225 41.4304L56.9471 55.3046L57.4377 55.2083L54.7131 41.3341L54.2225 41.4304ZM63.5552 45.3646L61.9345 58.3302L62.4307 58.3922L64.0514 45.4266L63.5552 45.3646ZM61.9345 58.3302C61.9189 58.4553 61.8126 58.5492 61.6865 58.5492V59.0492C62.0647 59.0492 62.3838 58.7675 62.4307 58.3922L61.9345 58.3302ZM61.6865 58.5492C61.5604 58.5492 61.454 58.4553 61.4384 58.3302L60.9423 58.3922C60.9892 58.7675 61.3082 59.0492 61.6865 59.0492V58.5492ZM61.4384 58.3302L59.8094 45.2979L59.3132 45.3599L60.9423 58.3922L61.4384 58.3302ZM59.3136 45.2949L57.5281 58.3331L58.0235 58.401L59.809 45.3628L59.3136 45.2949ZM57.5281 58.3331C57.5115 58.4542 57.4098 58.5456 57.2876 58.5491L57.3021 59.0489C57.6686 59.0383 57.9737 58.7642 58.0235 58.401L57.5281 58.3331ZM57.2876 58.5491C57.1655 58.5526 57.0586 58.4673 57.0351 58.3474L56.5445 58.4437C56.6151 58.8035 56.9356 59.0595 57.3021 59.0489L57.2876 58.5491ZM57.0351 58.3474L54.3637 44.7441L53.8731 44.8405L56.5445 58.4437L57.0351 58.3474ZM52.16 65.0328L54.3669 44.8194L53.8699 44.7652L51.663 64.9786L52.16 65.0328ZM56.3849 69.7441C53.8551 69.7441 51.8854 67.5477 52.16 65.0328L51.663 64.9786C51.3561 67.7893 53.5575 70.2441 56.3849 70.2441V69.7441ZM61.9244 69.7441H56.3849V70.2441H61.9244V69.7441ZM66.1377 64.9364C66.4748 67.4829 64.4932 69.7441 61.9244 69.7441V70.2441C64.7954 70.2441 67.0101 67.7169 66.6334 64.8708L66.1377 64.9364ZM63.5555 45.4284L66.1377 64.9364L66.6334 64.8708L64.0512 45.3628L63.5555 45.4284Z" fill="#3B414C"/>
<path d="M86.1722 70.914C85.6882 70.914 85.2115 70.7747 84.7422 70.496C84.2729 70.232 84.0382 69.7187 84.0382 68.956C84.0382 68.604 84.1042 68.1347 84.2362 67.548C84.3829 66.9613 84.6395 66.0813 85.0062 64.908L85.2922 63.984C85.7615 62.4733 86.1062 61.2047 86.3262 60.178C86.5609 59.1513 86.6782 58.0293 86.6782 56.812C86.6782 55.8733 86.5755 55.1767 86.3702 54.722C86.1795 54.2673 85.8349 54.04 85.3362 54.04C84.6762 54.04 84.1555 54.37 83.7742 55.03C83.4075 55.69 83.2242 56.438 83.2242 57.274C83.2242 57.9193 83.3342 58.4547 83.5542 58.88C82.8649 58.88 82.3515 58.7187 82.0142 58.396C81.6769 58.0733 81.5082 57.648 81.5082 57.12C81.5082 56.5187 81.6989 55.91 82.0802 55.294C82.4762 54.678 82.9969 54.172 83.6422 53.776C84.3022 53.3653 85.0062 53.16 85.7542 53.16C86.7369 53.16 87.4922 53.5267 88.0202 54.26C88.5482 54.9933 88.8122 56.0347 88.8122 57.384C88.8122 58.308 88.6949 59.2833 88.4602 60.31C88.2255 61.322 87.8662 62.5907 87.3822 64.116C87.3382 64.2773 87.2869 64.4387 87.2282 64.6C87.1695 64.7613 87.1109 64.9373 87.0522 65.128C86.7589 65.964 86.5242 66.6973 86.3482 67.328C86.1869 67.9587 86.1062 68.5747 86.1062 69.176C86.1062 69.4547 86.1355 69.6453 86.1942 69.748C86.2675 69.8653 86.3995 69.924 86.5902 69.924C87.3235 69.924 88.1595 69.3373 89.0982 68.164C90.0515 66.976 90.9022 65.59 91.6502 64.006C92.4129 62.422 92.8675 61.124 93.0142 60.112C93.5275 60.112 93.9455 60.2587 94.2682 60.552C94.6055 60.8453 94.7742 61.146 94.7742 61.454C94.7742 61.7327 94.5029 62.5027 93.9602 63.764C93.4615 64.9373 93.0655 65.9493 92.7722 66.8C92.4935 67.636 92.3542 68.3987 92.3542 69.088C92.3542 69.396 92.3909 69.6087 92.4642 69.726C92.5522 69.858 92.7062 69.924 92.9262 69.924C93.7329 69.924 94.7449 69.1907 95.9622 67.724C97.1942 66.2427 98.2722 64.5047 99.1962 62.51C100.12 60.5007 100.582 58.7773 100.582 57.34C100.582 56.592 100.45 56.042 100.186 55.69C99.9222 55.3233 99.5555 55.0593 99.0862 54.898C99.3355 54.4873 99.6069 54.1793 99.9002 53.974C100.208 53.7687 100.487 53.666 100.736 53.666C100.986 53.666 101.228 53.7687 101.462 53.974C101.712 54.1647 101.917 54.4653 102.078 54.876C102.24 55.2867 102.32 55.778 102.32 56.35C102.32 57.9047 101.763 59.8553 100.648 62.202C99.5335 64.534 98.1842 66.5727 96.6002 68.318C95.0162 70.0487 93.5715 70.914 92.2662 70.914C91.6942 70.914 91.2175 70.738 90.8362 70.386C90.4695 70.0487 90.2862 69.594 90.2862 69.022C90.2862 68.714 90.3595 68.34 90.5062 67.9C88.9075 69.9093 87.4629 70.914 86.1722 70.914ZM109.688 70.914C108.822 70.914 108.038 70.6867 107.334 70.232C106.63 69.792 106.072 69.154 105.662 68.318C105.266 67.482 105.068 66.5067 105.068 65.392C105.068 63.544 105.53 61.6667 106.454 59.76C107.392 57.8533 108.61 56.284 110.106 55.052C111.602 53.8053 113.134 53.182 114.704 53.182C115.305 53.182 115.804 53.3873 116.2 53.798C115.965 53.7687 115.752 53.754 115.562 53.754C114.33 53.754 113.068 54.37 111.778 55.602C110.502 56.834 109.446 58.374 108.61 60.222C107.774 62.07 107.356 63.8373 107.356 65.524C107.356 66.7853 107.605 67.8267 108.104 68.648C108.617 69.4547 109.402 69.858 110.458 69.858C111.734 69.858 112.9 69.2493 113.956 68.032C115.026 66.8147 115.862 65.304 116.464 63.5C117.08 61.6813 117.388 59.9507 117.388 58.308C117.388 57.5013 117.307 56.7753 117.146 56.13C116.999 55.47 116.75 55.14 116.398 55.14C116.09 55.14 115.73 55.404 115.32 55.932C114.924 56.4453 114.557 57.0687 114.22 57.802C113.882 58.5353 113.655 59.1953 113.538 59.782C112.614 59.5913 112.152 59.166 112.152 58.506C112.152 57.9927 112.394 57.3987 112.878 56.724C113.362 56.0493 113.941 55.47 114.616 54.986C115.29 54.4873 115.899 54.238 116.442 54.238C117.219 54.238 117.762 54.7293 118.07 55.712C118.378 56.6947 118.532 57.824 118.532 59.1C118.532 61.4467 118.07 63.522 117.146 65.326C116.222 67.1153 115.07 68.494 113.692 69.462C112.328 70.43 110.993 70.914 109.688 70.914ZM79.2288 89.914C79.4048 89.386 80.2555 87.516 81.7808 84.304C84.0248 79.4347 85.5281 76.164 86.2908 74.492C86.4228 74.1987 86.4888 73.9567 86.4888 73.766C86.4888 73.4433 86.2761 73.282 85.8508 73.282C85.2788 73.282 84.7948 73.4653 84.3988 73.832C84.0028 74.184 83.7021 74.6313 83.4968 75.174C83.3061 75.7167 83.2108 76.2667 83.2108 76.824C83.2108 77.132 83.2401 77.484 83.2988 77.88C82.8148 77.88 82.4335 77.6747 82.1548 77.264C81.8761 76.8387 81.7368 76.3767 81.7368 75.878C81.7368 75.2767 81.9641 74.69 82.4188 74.118C82.8735 73.5313 83.4528 73.062 84.1568 72.71C84.8755 72.3433 85.5795 72.16 86.2688 72.16C86.8408 72.16 87.3101 72.3213 87.6768 72.644C88.0581 72.952 88.3441 73.502 88.5348 74.294C88.7401 75.086 88.8428 76.1933 88.8428 77.616C88.8428 78.6427 88.7621 80.234 88.6008 82.39C88.4835 83.974 88.4248 84.986 88.4248 85.426C88.8648 84.106 89.4881 82.632 90.2948 81.004C91.1015 79.376 91.9008 77.8727 92.6928 76.494C93.4995 75.1007 94.1301 74.0667 94.5848 73.392C94.8195 73.0253 95.0175 72.776 95.1788 72.644C95.3401 72.4973 95.5455 72.424 95.7948 72.424C96.0001 72.424 96.3228 72.5047 96.7628 72.666C96.4695 73.2967 96.0881 74.58 95.6188 76.516C95.1495 78.452 94.7388 80.4907 94.3868 82.632C94.0495 84.7587 93.8808 86.4747 93.8808 87.78C93.8808 88.2347 93.9028 88.572 93.9468 88.792C93.9908 89.012 94.0495 89.2247 94.1228 89.43C94.2108 89.65 94.2768 89.8113 94.3208 89.914C93.6901 89.914 93.2135 89.8187 92.8908 89.628C92.5681 89.452 92.3481 89.1587 92.2308 88.748C92.1135 88.352 92.0548 87.7873 92.0548 87.054C92.0548 85.5873 92.2088 84.0327 92.5168 82.39C92.8395 80.7473 93.3088 78.738 93.9248 76.362C93.0008 77.682 91.9888 79.552 90.8888 81.972C89.7888 84.392 88.9748 86.3793 88.4468 87.934L88.2928 87.978C88.1901 88.022 88.0875 88.044 87.9848 88.044C87.5008 88.044 87.1781 87.7653 87.0168 87.208C86.8701 86.6507 86.7968 85.7633 86.7968 84.546C86.7968 83.798 86.8261 82.544 86.8848 80.784C86.9435 78.936 86.9728 77.5867 86.9728 76.736L86.9508 75.438L84.6848 80.762C83.5995 83.3433 82.7855 85.2207 82.2428 86.394C81.7148 87.5527 81.2088 88.4253 80.7248 89.012C80.2555 89.6133 79.7568 89.914 79.2288 89.914ZM104.824 89.914C103.416 89.914 102.698 89.3493 102.668 88.22C102.668 87.8387 102.734 87.3913 102.866 86.878C103.013 86.35 103.204 85.7193 103.438 84.986C103.922 83.5193 104.436 82.104 104.978 80.74C105.536 79.3613 106.218 77.7187 107.024 75.812L107.816 73.942C106.364 73.9567 105.176 74.008 104.252 74.096C103.343 74.1693 102.382 74.294 101.37 74.47C101.458 73.6047 102.001 73.0033 102.998 72.666C103.996 72.3287 105.396 72.16 107.2 72.16C108.388 72.16 109.862 72.248 111.622 72.424C113.162 72.5707 114.292 72.644 115.01 72.644C114.424 73.2013 113.639 73.5607 112.656 73.722C111.688 73.8687 110.522 73.942 109.158 73.942C107.956 76.9047 106.768 80.542 105.594 84.854C105.257 86.1007 105.03 86.9953 104.912 87.538C104.81 88.0807 104.758 88.66 104.758 89.276C104.758 89.4813 104.78 89.694 104.824 89.914ZM115.869 85.382C115.488 85.1913 115.238 85.0227 115.121 84.876C115.004 84.7147 114.945 84.4727 114.945 84.15C114.945 83.402 115.114 82.7273 115.451 82.126C115.788 81.5247 116.302 80.7987 116.991 79.948C117.695 79.0973 118.223 78.3493 118.575 77.704C118.942 77.0587 119.125 76.318 119.125 75.482C119.125 74.7193 118.964 74.1253 118.641 73.7C118.333 73.26 117.93 73.04 117.431 73.04C116.932 73.04 116.426 73.2453 115.913 73.656C115.414 74.052 115.004 74.5873 114.681 75.262C114.358 75.9367 114.197 76.6553 114.197 77.418C114.197 77.8873 114.278 78.386 114.439 78.914C113.764 78.8113 113.295 78.606 113.031 78.298C112.767 77.99 112.635 77.5793 112.635 77.066C112.635 76.2153 112.833 75.416 113.229 74.668C113.64 73.92 114.212 73.3187 114.945 72.864C115.693 72.3947 116.544 72.16 117.497 72.16C118.509 72.16 119.308 72.424 119.895 72.952C120.496 73.48 120.797 74.228 120.797 75.196C120.797 75.988 120.621 76.6773 120.269 77.264C119.932 77.836 119.411 78.5107 118.707 79.288C118.091 79.9773 117.607 80.5713 117.255 81.07C116.918 81.554 116.654 82.126 116.463 82.786C116.375 83.0647 116.287 83.4753 116.199 84.018C116.111 84.5753 116.001 85.03 115.869 85.382ZM114.923 88.22C114.674 88.22 114.461 88.154 114.285 88.022C114.124 87.9047 114.043 87.7287 114.043 87.494C114.043 87.2153 114.197 86.9733 114.505 86.768C114.813 86.548 115.136 86.438 115.473 86.438C115.708 86.438 115.891 86.4967 116.023 86.614C116.17 86.7167 116.243 86.8707 116.243 87.076C116.243 87.3693 116.104 87.6333 115.825 87.868C115.561 88.1027 115.26 88.22 114.923 88.22Z" fill="#E3A000"/>
</g>
<defs>
<filter id="filter0_d" x="6.34082" y="6.47852" width="122.456" height="129.409" filterUnits="userSpaceOnUse" color-interpolation-filters="sRGB">
<feFlood flood-opacity="0" result="BackgroundImageFix"/>
<feColorMatrix in="SourceAlpha" type="matrix" values="0 0 0 0 0 0 0 0 0 0 0 0 0 0 0 0 0 0 127 0"/>
<feOffset dx="4" dy="4"/>
<feGaussianBlur stdDeviation="2"/>
<feColorMatrix type="matrix" values="0 0 0 0 0 0 0 0 0 0 0 0 0 0 0 0 0 0 0.15 0"/>
<feBlend mode="normal" in2="BackgroundImageFix" result="effect1_dropShadow"/>
<feBlend mode="normal" in="SourceGraphic" in2="effect1_dropShadow" result="shape"/>
</filter>
</defs>
</svg>
